# xmcd CD database file
#
# Track frame offsets:
#	183
#	16420
#	30138
#	42683
#	50028
#	62633
#	73938
#	92200
#	106895
#	120193
#	134003
#	145395
#	155095
#	163900
#	176638
#	189628
#
# Disc length: 2698 seconds
#
# Revision: 0
# Processed by: cddbd v1.5.2PL0 Copyright (c) Steve Scherf et al.
# Submitted via: CDex 2.12
#
DISCID=ec0a8810
DTITLE=Fats Waller - Ain't Misbehavin' (1935-38)
DYEAR=1935
DGENRE=Jazz
TTITLE0=Aint' Misbehavin'
TTITLE1=Your feets too big
TTITLE2=Honeysuckie Rose
TTITLE3=I've go my fingers crossed
TTITLE4=The joint is jumpin'
TTITLE5=Sweet Sue, just you
TTITLE6=Lonsome me
TTITLE7=Allelujah
TTITLE8=Handful of keys
TTITLE9=Christopher Columbus
TTITLE10=Its a sin to tell a lie
TTITLE11=Until the real thing comes along
TTITLE12=Crazy' bout my baby
TTITLE13=Old grandad
TTITLE14=Dark eyes
TTITLE15=Single bells
EXTD=YEAR: 1935
EXTT0=
EXTT1=
EXTT2=
EXTT3=
EXTT4=
EXTT5=
EXTT6=
EXTT7=
EXTT8=
EXTT9=
EXTT10=
EXTT11=
EXTT12=
EXTT13=
EXTT14=
EXTT15=
PLAYORDER=
